<?xml version="1.0" encoding="UTF-8" standalone="no"?>
<!-- Created with Inkscape (http://www.inkscape.org/) -->

<svg
   width="113.97499mm"
   height="32.786438mm"
   viewBox="0 0 113.97499 32.786438"
   version="1.1"
   id="svg5"
   xml:space="preserve"
   sodipodi:docname="cars.svg"
   xmlns:inkscape="http://www.inkscape.org/namespaces/inkscape"
   xmlns:sodipodi="http://sodipodi.sourceforge.net/DTD/sodipodi-0.dtd"
   xmlns="http://www.w3.org/2000/svg"
   xmlns:svg="http://www.w3.org/2000/svg"><sodipodi:namedview
     id="namedview7"
     pagecolor="#505050"
     bordercolor="#ffffff"
     borderopacity="1"
     inkscape:showpageshadow="0"
     inkscape:pageopacity="0"
     inkscape:pagecheckerboard="1"
     inkscape:deskcolor="#505050"
     inkscape:document-units="mm"
     showgrid="false"
     inkscape:zoom="0.72426347"
     inkscape:cx="351.39146"
     inkscape:cy="294.78223"
     inkscape:window-width="1443"
     inkscape:window-height="1281"
     inkscape:window-x="26"
     inkscape:window-y="23"
     inkscape:window-maximized="0"
     inkscape:current-layer="layer1" /><defs
     id="defs2" /><g
     inkscape:label="Layer 1"
     inkscape:groupmode="layer"
     id="layer1"
     transform="translate(-15.314987,-170.25617)"><path
       style="fill:#000000;stroke-width:0.264583"
       d="m 36.332966,202.59314 c -1.50808,-0.52111 -3.635529,-2.34728 -4.528349,-3.88708 -1.874169,-3.23225 -1.178926,-7.65627 1.606714,-10.22398 1.818248,-1.67601 3.269197,-2.23828 5.788004,-2.24299 1.787615,-0.003 2.351222,0.11123 3.625482,0.73697 5.272035,2.58893 6.469385,9.50383 2.354247,13.59618 -0.612759,0.60936 -1.664605,1.37443 -2.337433,1.70014 -1.627481,0.78784 -4.716375,0.94007 -6.508665,0.32076 z m 2.913115,-2.53353 c -0.0786,-0.32742 -0.223819,-1.0418 -0.322712,-1.5875 -0.09889,-0.5457 -0.255847,-0.98863 -0.348792,-0.98429 -0.363453,0.017 -2.539193,2.07572 -2.371215,2.2437 0.267491,0.26749 2.131883,0.89852 2.693927,0.91179 0.377735,0.009 0.458579,-0.12637 0.348792,-0.5837 z m 4.506392,-1.5875 c 0.50778,-0.55533 1.399987,-2.10667 1.399987,-2.43425 0,-0.08 -0.833438,-0.14544 -1.852084,-0.14544 -1.507574,0 -1.852083,0.0774 -1.852083,0.41591 0,0.49218 1.287079,2.75909 1.566521,2.75909 0.106326,0 0.438275,-0.26789 0.737659,-0.59531 z m -8.611198,-2.34269 c 0.703963,-0.45173 1.279935,-0.86673 1.279935,-0.92223 0,-0.0555 -0.706991,-0.45779 -1.571091,-0.89398 -1.482847,-0.74854 -1.580044,-0.76488 -1.730481,-0.2909 -0.199826,0.6296 0.258818,2.92845 0.584258,2.92845 0.0866,0 0.733415,-0.3696 1.437379,-0.82134 z m 5.002508,-0.92063 c 0.465678,-0.56111 0.0159,-1.27421 -0.871188,-1.3812 -0.738939,-0.0891 -1.11575,0.48738 -0.855181,1.30836 0.193035,0.6082 1.245217,0.65259 1.726369,0.0728 z m 2.980175,-2.79247 c 0.939548,-0.18869 1.499335,-0.43537 1.499335,-0.6607 0,-0.39582 -1.786538,-2.47778 -2.126192,-2.47778 -0.11689,0 -0.418036,0.62508 -0.669208,1.38906 -0.251171,0.76399 -0.511603,1.53789 -0.578739,1.7198 -0.149727,0.40569 -0.0089,0.40792 1.874804,0.0296 z m -4.751446,-1.05489 c 0.09095,-0.45475 0.165364,-1.30307 0.165364,-1.88515 0,-1.04497 -0.01048,-1.05624 -0.829548,-0.89243 -0.869362,0.17388 -2.612792,1.13929 -2.606199,1.44317 0.0041,0.18865 2.661246,2.13252 2.939654,2.15054 0.09095,0.006 0.239778,-0.36137 0.330729,-0.81613 z m 62.172208,11.12382 c -4.292504,-1.65078 -6.483387,-6.59924 -4.844827,-10.94281 0.706831,-1.8737 2.417617,-3.70082 4.353607,-4.64965 1.09469,-0.5365 1.71092,-0.64698 3.57188,-0.64033 1.91734,0.007 2.45247,0.11345 3.62917,0.72293 1.82641,0.94601 3.16433,2.32389 4.01183,4.13165 0.96958,2.06814 0.98828,5.11136 0.0432,7.03434 -1.98548,4.04007 -6.65513,5.92438 -10.76489,4.34387 z m 3.07555,-2.29335 c -0.003,-0.25466 -0.1527,-1.03202 -0.3331,-1.72747 l -0.328,-1.26446 -1.3106,1.3306 c -0.72082,0.73183 -1.25553,1.3324 -1.18825,1.33459 0.0673,0.002 0.5986,0.17556 1.18068,0.38526 1.43458,0.51682 1.98544,0.50054 1.97927,-0.0585 z m 5.03802,-2.3669 c 0.43336,-0.68333 0.78792,-1.39771 0.78792,-1.5875 0,-0.4972 -3.40274,-0.48436 -3.59381,0.0136 -0.17379,0.45289 1.22971,2.79678 1.68141,2.808 0.18511,0.005 0.69112,-0.55072 1.12448,-1.23406 z m -9.003758,-1.74968 1.299948,-0.87543 -1.70726,-0.84189 -1.707259,-0.84189 v 1.03864 c 0,1.03097 0.379058,2.39601 0.665348,2.39601 0.0821,0 0.734253,-0.39395 1.449223,-0.87544 z m 4.906188,-0.7271 c 0.0951,-0.15379 0.0998,-0.57051 0.0106,-0.92604 -0.11641,-0.46377 -0.34402,-0.64642 -0.80553,-0.64642 -0.78599,0 -1.25647,0.72064 -0.9024,1.38223 0.27387,0.51174 1.4193,0.64011 1.69734,0.19023 z m 3.62872,-3.06852 c 0.5457,-0.0875 0.99219,-0.26558 0.99219,-0.39575 0,-0.28166 -2.10584,-2.60611 -2.361,-2.60611 -0.0973,0 -0.43298,0.78752 -0.74592,1.75004 l -0.56898,1.75004 0.84576,-0.16958 c 0.46517,-0.0933 1.29225,-0.24115 1.83795,-0.32864 z m -5.35781,-1.52501 c 0,-0.78846 0.0723,-1.6219 0.1606,-1.85208 0.22839,-0.59519 -0.73471,-0.54577 -1.95708,0.10041 -1.826859,0.96574 -1.820188,0.91698 -0.28442,2.07996 0.78069,0.59119 1.56827,1.08173 1.75017,1.09009 0.22576,0.0104 0.33073,-0.43981 0.33073,-1.41838 z m 10.76664,6.50891 c 0.24008,-4.77493 -0.67601,-7.68304 -3.1489,-9.99614 -1.89385,-1.77148 -3.28362,-2.30406 -6.3601,-2.43732 -2.94893,-0.12772 -4.573218,0.26872 -6.482171,1.58211 -2.511978,1.72829 -3.97274,5.20465 -4.229124,10.06457 l -0.150622,2.85519 -12.06505,-0.0366 c -6.63578,-0.0201 -16.442278,-0.10945 -21.792225,-0.19844 l -9.727173,-0.16181 -0.08309,-3.04271 c -0.09401,-3.44281 -0.577098,-5.05236 -2.163371,-7.20797 -3.890478,-5.28684 -12.412115,-5.27783 -16.450916,0.0174 -1.210122,1.58658 -1.693021,3.40154 -1.860383,6.99215 l -0.144905,3.10885 -0.691284,-5.3e-4 c -0.916507,-8.4e-4 -10.548204,-1.01554 -11.454778,-1.20674 -0.390127,-0.0823 -0.857486,-0.32812 -1.038575,-0.54632 -0.395089,-0.47605 -0.617177,-7.96065 -0.263795,-8.89012 0.126233,-0.33202 1.198875,-1.64742 2.38365,-2.92311 2.251347,-2.42412 2.343405,-2.69499 1.229988,-3.61904 -0.596771,-0.49528 -0.506517,-1.18117 0.278127,-2.11367 0.826367,-0.98208 0.692152,-1.22847 -1.399537,-2.56925 -1.667552,-1.06891 -1.794898,-1.25295 -1.246471,-1.80138 0.360546,-0.36054 0.796618,-0.40072 2.714412,-0.2501 1.414404,0.11108 2.672296,0.37427 3.301848,0.69083 0.559345,0.28127 1.511847,0.59525 2.116668,0.69774 0.932826,0.15807 1.112002,0.29195 1.180926,0.88242 0.05259,0.45054 -0.09611,0.82178 -0.421548,1.0524 -0.62584,0.44351 -0.926084,1.79906 -0.439809,1.98566 0.189812,0.0728 4.788768,-1.355 10.219902,-3.17297 13.400075,-4.48544 19.15794,-5.8558 27.46958,-6.53775 8.880628,-0.72862 11.400142,0.0179 22.716252,6.73031 4.835658,2.8684 5.824268,3.20696 10.092082,3.45612 6.314182,0.36862 15.423942,1.26544 17.991672,1.77121 2.07116,0.40797 3.65116,1.28762 5.33222,2.96868 1.1043,1.1043 1.90604,1.62914 3.27691,2.14513 2.32033,0.87337 4.51792,2.5206 5.06228,3.79451 0.22886,0.53556 0.52413,1.18609 0.65617,1.44563 0.13203,0.25953 0.16334,1.68828 0.0696,3.175 -0.16859,2.673 -0.16278,2.71026 0.52138,3.34455 0.38053,0.35279 0.69187,0.73974 0.69187,0.85989 0,0.12005 -3.566,0.21836 -7.92445,0.21836 h -7.92445 z m 4.69255,-10.07179 c 0.17549,-0.28395 -1.87335,-2.21385 -2.93086,-2.76071 -0.41874,-0.21654 -1.32532,-0.47828 -2.01463,-0.58165 -1.04923,-0.15734 -1.25328,-0.11925 -1.25328,0.23393 0,0.24791 0.30003,0.483 0.7276,0.57009 1.16202,0.2367 2.85685,1.16317 3.65849,1.9999 0.72812,0.76 1.52877,0.99782 1.81268,0.53844 z m -93.273769,-1.80555 c 1.323928,-0.63477 1.837635,-1.00191 1.5875,-1.13456 -0.732192,-0.38829 -5.333651,-0.83147 -5.623512,-0.54161 -0.191718,0.19172 -0.05779,0.27608 0.438295,0.27608 0.922262,0 0.930005,0.58573 0.01723,1.30372 -0.427933,0.33661 -1.086015,0.54837 -1.704176,0.54837 -1.408884,0 -1.557684,0.47793 -0.184402,0.59229 2.076153,0.17288 3.495803,-0.0982 5.46906,-1.04429 z m 35.084368,0.18741 c 0.08994,-0.14552 0.444412,-0.26458 0.787725,-0.26458 0.795983,0 1.461233,-0.2538 1.461233,-0.55747 0,-0.12995 -0.208359,-0.23701 -0.463021,-0.23791 -0.254661,-7.9e-4 -0.804053,-0.17949 -1.220869,-0.39687 -0.859603,-0.44832 -1.794156,-0.51284 -2.165798,-0.14953 -0.138244,0.13515 -0.668073,0.28397 -1.177395,0.33073 -1.130224,0.10375 -1.123935,0.55201 0.01101,0.78413 0.457478,0.0936 0.963621,0.30196 1.124762,0.4631 0.365118,0.36512 1.422956,0.38341 1.642362,0.0284 z m 16.451643,-5.83096 c -0.390966,-1.03579 0.130218,-2.05685 1.367103,-2.6783 l 0.874691,-0.43948 -1.54151,-1.04525 c -3.720296,-2.52262 -6.800282,-3.49976 -11.031424,-3.49976 -2.883641,0 -9.147961,0.70361 -9.534375,1.0709 -0.194199,0.18459 1.7442,6.39386 2.1398,6.85441 0.05674,0.0661 3.521773,0.19395 7.700076,0.2842 4.178303,0.0902 8.211648,0.18503 8.962993,0.21063 l 1.366079,0.0465 z m -21.534059,0.0763 c 0.05951,-0.10914 -0.202724,-1.50676 -0.582726,-3.10582 -0.483042,-2.03263 -0.814187,-2.93111 -1.100633,-2.98628 -1.030078,-0.19837 -13.488927,3.78754 -13.678371,4.37607 -0.187907,0.58376 1.652101,1.10483 4.883243,1.38287 5.60818,0.48258 10.315421,0.63225 10.478487,0.33316 z"
       id="path291"
       sodipodi:nodetypes="ssscsssssssscssssssssssssscssccssssssssssscsssscsscsssscscsssssscssscccsssscssssssssccsscsssssssssccscssssccssssssssssssssssssssssscssscsssssssssssssssssssscssssssssscsssscccsssssss" /></g></svg>
