<?xml version="1.0" encoding="UTF-8" standalone="no"?>
<!-- Created with Inkscape (http://www.inkscape.org/) -->

<svg
   width="115.32798mm"
   height="29.741699mm"
   viewBox="0 0 115.32798 29.741699"
   version="1.1"
   id="svg5"
   xml:space="preserve"
   sodipodi:docname="cars.svg"
   xmlns:inkscape="http://www.inkscape.org/namespaces/inkscape"
   xmlns:sodipodi="http://sodipodi.sourceforge.net/DTD/sodipodi-0.dtd"
   xmlns="http://www.w3.org/2000/svg"
   xmlns:svg="http://www.w3.org/2000/svg"><sodipodi:namedview
     id="namedview7"
     pagecolor="#505050"
     bordercolor="#ffffff"
     borderopacity="1"
     inkscape:showpageshadow="0"
     inkscape:pageopacity="0"
     inkscape:pagecheckerboard="1"
     inkscape:deskcolor="#505050"
     inkscape:document-units="mm"
     showgrid="false"
     inkscape:zoom="0.72426347"
     inkscape:cx="351.39146"
     inkscape:cy="294.78223"
     inkscape:window-width="1443"
     inkscape:window-height="1281"
     inkscape:window-x="26"
     inkscape:window-y="23"
     inkscape:window-maximized="0"
     inkscape:current-layer="layer1" /><defs
     id="defs2" /><g
     inkscape:label="Layer 1"
     inkscape:groupmode="layer"
     id="layer1"
     transform="translate(-11.416126,-130.93927)"><path
       style="fill:#000000;stroke-width:0.264583"
       d="m 29.470998,160.42101 c -1.862502,-0.30243 -3.426865,-1.16257 -4.816644,-2.64836 -1.805913,-1.93067 -2.379591,-3.35955 -2.3844,-5.93891 -0.0035,-1.86682 0.100189,-2.33378 0.861374,-3.87997 1.569341,-3.18779 4.260167,-4.8453 7.865919,-4.8453 2.555063,0 4.409858,0.75175 6.135021,2.48652 5.97983,6.01313 0.722358,16.18734 -7.66127,14.82602 z m 3.495104,-2.25161 c 3.85953,-1.14616 5.866871,-5.94719 4.009099,-9.58872 -1.250672,-2.45153 -3.357031,-3.74122 -6.110245,-3.74122 -4.073843,0 -6.878396,2.80324 -6.870772,6.86755 0.0038,2.00209 0.559038,3.40872 1.861465,4.71545 1.998168,2.00476 4.32076,2.57539 7.110453,1.74694 z m -4.036891,-1.02489 c -3.259508,-1.16249 -4.738206,-4.7849 -3.254195,-7.97191 0.994262,-2.13524 2.840609,-3.28643 5.271008,-3.28643 4.300641,0 7.012638,4.48553 5.069546,8.38481 -1.316482,2.64183 -4.320484,3.85996 -7.086359,2.87353 z m 3.960564,-0.9586 c 0.929018,-0.34728 0.917612,-0.66146 -0.0406,-1.1184 -0.89972,-0.42905 -0.905891,-0.42756 -1.460608,0.35147 -0.904917,1.27084 -0.457806,1.49926 1.501208,0.76693 z m -2.938836,-0.36584 c 0.357188,-0.35718 0.649433,-0.9483 0.649433,-1.3136 0,-0.75339 -0.816403,-1.32441 -1.557343,-1.08924 -0.991859,0.3148 -1.308801,2.28898 -0.457517,2.84979 0.470596,0.31002 0.675555,0.24293 1.365427,-0.44695 z m -2.371053,-2.13815 c 0.24416,-0.51452 0.398574,-0.96728 0.343144,-1.00612 -0.524794,-0.36772 -1.566485,-0.96879 -1.678975,-0.96879 -0.270502,0 -0.139409,1.08057 0.241774,1.99287 0.210857,0.50465 0.443396,0.91754 0.516755,0.91754 0.07336,0 0.333145,-0.42097 0.577302,-0.9355 z m 7.271213,0.66161 c 0.281475,-0.15064 0.511773,-0.47039 0.511773,-0.71055 0,-0.64346 -1.062125,-1.66139 -1.733515,-1.66139 -1.294826,0 -1.577848,1.70232 -0.383151,2.30458 0.808937,0.4078 0.957156,0.41402 1.604893,0.0674 z m -3.346325,-1.73879 c 0.540316,-0.20734 0.539985,-1.26129 -5.3e-4,-1.70989 -0.824825,-0.68454 -1.85843,0.64224 -1.157898,1.48633 0.352517,0.42475 0.539901,0.46092 1.158436,0.22356 z m 3.937209,-2.38889 c -0.455441,-1.33665 -0.762109,-1.44624 -1.195028,-0.42707 -0.438923,1.0333 -0.426432,1.07774 0.454459,1.6168 1.024784,0.62711 1.241176,0.27947 0.740569,-1.18973 z m -6.155032,0.67966 c 0.227685,-0.42543 0.199015,-0.68988 -0.129082,-1.19062 -0.772837,-1.1795 -3.296097,-0.69334 -2.619153,0.50464 0.748152,1.32399 2.211324,1.68921 2.748235,0.68598 z m 4.091546,-2.39215 c 0,-1.39251 -0.616868,-1.67696 -1.611103,-0.74293 -0.841598,0.79064 -0.863995,2.02384 -0.04254,2.34244 1.000078,0.38787 1.653646,-0.2443 1.653646,-1.59951 z m -2.940846,-0.35892 c 0.799893,-1.22079 0.543975,-1.41308 -1.226341,-0.92144 -1.171467,0.32533 -1.27975,0.82864 -0.264584,1.22979 1.032894,0.40814 1.01967,0.41088 1.490925,-0.30835 z m 71.071059,12.31098 c -2.275994,-0.69483 -4.631973,-2.76084 -5.572202,-4.88639 -1.829705,-4.13635 0.05235,-9.15623 4.195672,-11.19089 1.29849,-0.63764 1.82232,-0.74002 3.75778,-0.73441 1.79787,0.005 2.49499,0.12762 3.4756,0.61029 1.94667,0.95818 3.305,2.29303 4.2156,4.14274 0.71432,1.45097 0.83426,1.98398 0.83426,3.70712 0,1.72243 -0.12004,2.25635 -0.83287,3.7043 -1.52507,3.09787 -4.42764,4.91814 -7.76866,4.87192 -0.90405,-0.0125 -1.94138,-0.11361 -2.30518,-0.22468 z m 4.13072,-1.99558 c 1.5938,-0.4733 3.35434,-1.92231 4.1405,-3.40782 0.81584,-1.54158 0.81907,-4.61337 0.006,-6.14819 -0.67689,-1.27848 -2.1731,-2.65794 -3.49595,-3.22317 -1.39337,-0.59535 -3.8782,-0.54542 -5.31388,0.1068 -2.559917,1.16294 -3.954157,3.34347 -3.954157,6.18413 0,2.00569 0.555723,3.43706 1.828618,4.70995 1.931909,1.9319 4.237419,2.53586 6.788399,1.7783 z m -3.63196,-1.01731 c -1.58205,-0.59039 -2.532927,-1.43161 -3.25412,-2.87886 -1.464943,-2.93975 -0.403424,-6.12609 2.54638,-7.64339 1.09768,-0.56463 3.42159,-0.67728 4.62352,-0.22413 1.01249,0.38172 2.3981,1.749 3.04498,3.00468 0.79983,1.55258 0.59065,3.99291 -0.47201,5.50646 -1.42798,2.03391 -4.34012,3.03708 -6.48875,2.23524 z m 3.29056,-0.8656 c 0.68077,-0.23196 1.23776,-0.51051 1.23776,-0.61899 0,-0.2294 -1.19911,-0.81213 -1.66609,-0.80968 -0.36841,0.002 -1.27143,1.47053 -1.04404,1.69792 0.19189,0.19189 0.0346,0.22066 1.47237,-0.26925 z m -2.70806,-0.18198 c 0.73003,-0.56051 1.0823,-1.4601 0.78748,-2.01098 -0.90777,-1.69619 -2.981,-0.0661 -2.17258,1.70817 0.32111,0.70476 0.74178,0.79673 1.3851,0.30281 z m -1.93574,-2.62687 c 0.27607,-0.65042 0.23391,-0.7672 -0.45362,-1.25677 -0.41688,-0.29684 -0.8441,-0.53972 -0.949375,-0.53972 -0.275286,0 0.108278,2.15555 0.458697,2.57778 0.330978,0.3988 0.504248,0.25543 0.944298,-0.78129 z m 7.16148,0.88152 c 0.96221,-0.6099 -0.62499,-2.65695 -1.77667,-2.29142 -0.3082,0.0978 -0.63811,0.48766 -0.73315,0.86631 -0.28882,1.15076 1.41571,2.11861 2.50982,1.42511 z m -3.14254,-2.00385 c 0.52396,-0.63134 0.0805,-1.51255 -0.71309,-1.41715 -0.89667,0.1078 -1.35024,0.81841 -0.88228,1.38227 0.43454,0.52359 1.17631,0.53981 1.59537,0.0349 z m 3.66179,-2.02353 c -0.48817,-1.4645 -0.87594,-1.56444 -1.28311,-0.33069 -0.21079,0.6387 -0.23312,1.02472 -0.0626,1.08157 0.14587,0.0486 0.49046,0.25469 0.76575,0.45793 0.75964,0.5608 1.00165,0.0564 0.57992,-1.20881 z m -6.54428,1.07548 c 1.13057,-0.60506 0.21099,-2.37194 -1.23449,-2.37194 -1.749389,0 -1.199971,2.25984 0.63918,2.62906 0.046,0.009 0.31384,-0.10648 0.59531,-0.25712 z m 4.33323,-1.63706 c 1.17227,-1.67365 -0.4313,-3.21981 -1.68558,-1.62524 -0.65676,0.83493 -0.68688,1.24322 -0.1326,1.7975 0.58696,0.58696 1.33612,0.51598 1.81818,-0.17226 z m -2.32609,-2.45467 c -0.1602,-0.47443 -2.5537,0.13148 -2.5537,0.64646 0,0.14447 0.32743,0.44001 0.72761,0.65674 0.6908,0.37414 0.75764,0.35784 1.32151,-0.32228 0.32665,-0.39399 0.55371,-0.8354 0.50458,-0.98092 z m -31.790151,10.27022 c -11.890629,-0.3149 -31.761195,-0.93281 -31.817819,-0.98943 -0.03857,-0.0386 0.130008,-0.59471 0.374616,-1.23588 0.296608,-0.77747 0.450858,-2.00294 0.463116,-3.67929 0.01619,-2.21357 -0.06899,-2.70079 -0.713679,-4.08255 -0.9852,-2.11158 -2.22131,-3.55041 -3.92842,-4.57269 -3.111807,-1.86346 -6.767499,-2.1058 -9.860005,-0.65363 -3.70632,1.7404 -5.582955,4.55991 -5.943925,8.93032 l -0.167635,2.02963 -4.233334,-3.33916 c -5.591212,-4.41023 -5.877178,-5.00147 -2.84538,-5.88283 l 1.451017,-0.42183 -0.173589,-1.36144 c -0.489524,-3.83929 -0.749175,-4.78469 -1.509049,-5.49452 l -0.752294,-0.70275 2.97298,-0.55145 c 10.247592,-1.90083 27.825091,-4.27085 35.610451,-4.80146 4.061772,-0.27683 9.197155,-0.0924 12.143261,0.43608 l 0.859896,0.15426 v 2.20706 c 0,2.61214 0.314076,3.4474 1.428044,3.79775 2.324057,0.73094 16.994436,2.87232 21.193832,3.09358 l 2.645833,0.13941 -1.124479,-0.53437 c -1.204529,-0.57241 -1.374706,-1.04449 -0.817425,-2.26759 0.215397,-0.47274 0.511564,-0.67217 0.992187,-0.66809 0.846601,0.007 2.678004,0.81906 3.159115,1.40046 0.196524,0.2375 0.75783,0.50695 1.247344,0.59878 0.489516,0.0918 1.027914,0.33311 1.196438,0.53617 0.460115,0.5544 2.358278,0.41789 2.358278,-0.1696 0,-0.44923 -13.106757,-5.28618 -17.580001,-6.48777 -2.698473,-0.72486 -3.352631,-1.16256 -2.775951,-1.85742 0.912456,-1.09944 6.438591,0.26299 16.254911,4.00755 8.899047,3.39465 9.103577,3.45209 16.007297,4.49571 1.52796,0.23099 4.02828,0.83445 5.55625,1.34103 4.78044,1.5849 11.0621,4.98017 11.993,6.48228 0.21182,0.3418 0.0387,0.6485 -0.83583,1.48038 -0.90864,0.86437 -1.10301,1.22274 -1.10301,2.03367 0,1.28726 0.31254,1.85486 1.94855,3.53875 1.5324,1.57724 1.51173,1.63984 -0.75792,2.29604 -1.00115,0.28944 -8.87141,0.93566 -11.39546,0.93566 -0.57982,0 -0.63625,-0.77018 -0.20811,-2.84046 1.0867,-5.25472 -0.74743,-9.52688 -5.06518,-11.79815 -1.48816,-0.78282 -1.76162,-0.83522 -4.36975,-0.8373 -2.6062,-0.002 -2.89286,0.0522 -4.53035,0.85766 -4.501777,2.21439 -6.541979,7.18896 -5.012955,12.22293 0.314653,1.03593 0.500925,1.99866 0.413938,2.13941 -0.142248,0.23016 -15.036742,0.27933 -22.748804,0.0751 z m 50.568961,-3.32491 c -1.06424,-1.48069 -1.3207,-2.216 -1.28586,-3.68669 l 0.0356,-1.50388 -2.43502,-0.81122 c -1.33927,-0.44618 -2.51875,-0.81123 -2.62107,-0.81123 -0.10233,0 -0.008,0.50601 0.2107,1.12448 0.4729,1.34027 0.58634,3.29886 0.29117,5.02708 l -0.21465,1.25677 h 3.22348 3.22349 z m -60.226253,-0.43927 c 0,-0.34576 -3.393871,-0.53341 -11.1125,-0.61441 -4.305147,-0.0452 -6.794752,0.025 -6.879167,0.19378 -0.148842,0.29769 4.522346,0.51957 12.766146,0.60641 3.00404,0.0316 5.225521,-0.0473 5.225521,-0.18578 z m -3.028461,-2.42806 c 0.09777,-0.1582 0.07503,-0.38165 -0.05053,-0.49655 -0.125566,-0.11491 -3.532285,-0.28962 -7.570488,-0.38824 -6.541263,-0.15975 -7.342188,-0.13445 -7.342188,0.23197 0,0.2402 0.247639,0.42524 0.595312,0.44482 0.327422,0.0184 3.214688,0.11583 6.416146,0.21643 3.201459,0.1006 6.260291,0.20457 6.797406,0.23106 0.537114,0.0265 1.056568,-0.0813 1.154342,-0.23949 z m -2.384618,-2.64038 c 0.09592,-0.1552 0.132713,-0.32015 0.08176,-0.36656 -0.05095,-0.0464 -2.920376,-0.17086 -6.376496,-0.27658 -5.646867,-0.17273 -6.283854,-0.14959 -6.283854,0.2283 0,0.36606 0.625192,0.43067 4.828646,0.49897 2.655755,0.0432 5.446697,0.10538 6.202093,0.13826 0.755396,0.0329 1.451927,-0.0672 1.547849,-0.22239 z m -40.244417,-6.75503 c -0.0093,-0.71344 -0.105871,-1.8627 -0.21465,-2.55393 -0.157234,-0.99913 -0.302935,-1.25677 -0.710734,-1.25677 -0.599955,0 -0.591067,-0.0959 -0.23742,2.56054 0.335422,2.51951 0.427034,2.80665 0.849083,2.66122 0.207295,-0.0714 0.324299,-0.59768 0.313721,-1.41106 z m 23.961662,-5.30493 4.365625,-0.47766 -2.248958,-0.27083 -2.248959,-0.27082 2.820943,-0.87001 c 1.551517,-0.47851 4.051829,-1.15481 5.55625,-1.50288 1.781019,-0.41207 2.412233,-0.63925 1.809266,-0.65117 -2.923707,-0.0578 -25.300697,2.9939 -27.173241,3.70584 -0.72267,0.27476 -0.789708,0.67944 -0.144989,0.87525 0.976043,0.29644 13.08812,-0.0808 17.264063,-0.53772 z"
       id="path291"
       sodipodi:nodetypes="sssssssssscsssssssssssssssssssssscsssccsssssssssssssssssssssscsscsssssccscssssccssssssssscsssssssssssssssssssscsssccsscsssssssssssssssssscsscsscssscssscsscssssssssssssssssscssssssscsscscccsssccssssscssssssscsssssssssscccssssss" /></g></svg>
