<?xml version="1.0" encoding="UTF-8" standalone="no"?>
<!-- Created with Inkscape (http://www.inkscape.org/) -->

<svg
   width="111.94689mm"
   height="34.050243mm"
   viewBox="0 0 111.94689 34.050243"
   version="1.1"
   id="svg5"
   xml:space="preserve"
   xmlns:inkscape="http://www.inkscape.org/namespaces/inkscape"
   xmlns:sodipodi="http://sodipodi.sourceforge.net/DTD/sodipodi-0.dtd"
   xmlns="http://www.w3.org/2000/svg"
   xmlns:svg="http://www.w3.org/2000/svg"><sodipodi:namedview
     id="namedview7"
     pagecolor="#505050"
     bordercolor="#ffffff"
     borderopacity="1"
     inkscape:showpageshadow="0"
     inkscape:pageopacity="0"
     inkscape:pagecheckerboard="1"
     inkscape:deskcolor="#505050"
     inkscape:document-units="mm"
     showgrid="false" /><defs
     id="defs2" /><g
     inkscape:label="Layer 1"
     inkscape:groupmode="layer"
     id="layer1"
     transform="translate(-8.8372652,-28.883895)"><path
       style="fill:#000000;stroke-width:0.264583"
       d="m 31.464825,62.795377 c -2.564188,-0.51252 -4.448042,-1.94613 -5.608203,-4.26781 -1.444879,-2.89147 -1.015744,-6.4197 1.068866,-8.787945 0.584544,-0.664075 1.716397,-1.518732 2.559818,-1.932905 2.000223,-0.982237 4.817544,-1.024488 6.733712,-0.100984 1.586616,0.764675 3.169057,2.339597 3.955962,3.937174 0.912318,1.85219 0.866426,4.97012 -0.100311,6.81522 -1.678096,3.2028 -5.259451,5.00693 -8.609844,4.33725 z m 4.32589,-2.21148 c 3.002164,-1.39789 4.359543,-5.07371 2.989512,-8.09568 -1.096349,-2.418294 -3.123163,-3.704169 -5.838561,-3.704169 -4.627361,0 -7.643667,4.573319 -5.75864,8.731249 0.725432,1.60014 1.444006,2.33172 3.020475,3.07514 1.776958,0.83797 3.778525,0.83563 5.587214,-0.007 z m -4.52888,-0.47741 c -5.098514,-1.7822 -4.776825,-8.87097 0.466635,-10.282891 2.798381,-0.753525 5.761625,1.078961 6.564146,4.059301 1.028678,3.82022 -3.199382,7.56286 -7.030781,6.22359 z m 4.872963,-1.90343 c 0.281877,-0.33964 0.214315,-0.51293 -0.416144,-1.06742 -0.878949,-0.77303 -1.224497,-0.82907 -1.685664,-0.2734 -0.266242,0.3208 -0.270708,0.62434 -0.02143,1.45633 0.312846,1.04419 0.319723,1.04858 1.050822,0.67051 0.404754,-0.2093 0.887344,-0.56301 1.072422,-0.78602 z m -4.329425,-0.17456 c 0.260776,-0.75244 0.246994,-0.98849 -0.07958,-1.36277 -0.371059,-0.42527 -0.45707,-0.41726 -1.419622,0.13229 -0.563549,0.32175 -1.025548,0.6637 -1.02667,0.75991 -0.0037,0.31239 1.643816,1.56952 1.931273,1.4737 0.153556,-0.0512 0.421127,-0.5026 0.594603,-1.00313 z m 1.98841,-2.51975 c 0.464074,-0.55918 0.0011,-1.30074 -0.812157,-1.30074 -0.813215,0 -1.276231,0.74156 -0.812157,1.30074 0.191281,0.23048 0.556752,0.41905 0.812157,0.41905 0.255405,0 0.620877,-0.18857 0.812157,-0.41905 z m 3.68576,-1.05355 c 0,-0.56986 -0.345435,-1.53982 -0.690097,-1.93773 -0.04909,-0.0567 -0.498597,0.20918 -0.998908,0.59079 -1.07688,0.82137 -1.048186,1.66831 0.0623,1.83888 1.539142,0.23642 1.626703,0.20994 1.626703,-0.49194 z m -6.471878,-0.14771 c 0.132998,-0.41904 -0.03071,-0.77106 -0.643628,-1.38398 -0.656804,-0.6568 -0.821994,-0.72732 -0.821994,-0.35092 0,0.25909 -0.17761,0.81453 -0.39469,1.23432 -0.425135,0.82212 -0.467881,0.79018 1.369047,1.02292 0.172096,0.0218 0.393166,-0.21325 0.491265,-0.52234 z m 3.039362,-2.50214 c 0.17064,-0.51705 0.259942,-0.9904 0.198448,-1.0519 -0.251402,-0.251399 -1.683187,-0.381203 -1.983672,-0.179834 -0.443698,0.297344 0.118261,2.120614 0.694529,2.253394 0.616376,0.14202 0.747035,0.0196 1.090695,-1.02166 z m 67.496543,10.98037 c -6.331275,-1.24033 -8.710708,-8.7988 -4.215535,-13.390982 3.067865,-3.134071 8.203905,-3.134071 11.271765,0 3.22521,3.294812 3.05324,8.514312 -0.3801,11.536462 -1.75457,1.54443 -4.44461,2.29168 -6.67613,1.85452 z m 4.40245,-2.24706 c 4.53072,-2.25775 4.53072,-8.81605 0,-11.073799 -3.27525,-1.632127 -7.204488,-0.325988 -8.69714,2.891069 -0.645113,1.39038 -0.64946,3.88463 -0.0092,5.29393 0.532876,1.17299 2.066435,2.6474 3.32245,3.19432 1.39623,0.60796 3.82768,0.46999 5.38392,-0.30552 z m -4.83418,-0.51054 c -1.386981,-0.49064 -2.927177,-2.1595 -3.312024,-3.58871 -1.253532,-4.65527 3.961904,-8.482796 8.081864,-5.931157 1.80217,1.116147 2.57944,2.636817 2.45009,4.793397 -0.13137,2.19028 -1.0594,3.60566 -2.93749,4.48009 -1.55155,0.7224 -2.74299,0.79094 -4.28244,0.24638 z m 4.69635,-1.51588 c 0.40018,-0.27709 0.72679,-0.585 0.7258,-0.68422 -0.001,-0.0992 -0.40857,-0.4574 -0.90573,-0.79592 -0.72093,-0.4909 -1.01093,-0.55822 -1.43257,-0.33256 -0.46754,0.25021 -0.49721,0.39787 -0.25659,1.27695 0.43816,1.60076 0.36235,1.57903 1.86909,0.53575 z m -4.00022,-0.47917 c 0.27159,-0.90647 0.25802,-1.13222 -0.0889,-1.47913 -0.36947,-0.36947 -0.50258,-0.349 -1.36494,0.20984 -0.525546,0.34058 -0.957013,0.69794 -0.958815,0.79415 -0.0045,0.23834 1.567295,1.54487 1.858485,1.54487 0.12852,0 0.37789,-0.48138 0.55417,-1.06973 z m 2.06796,-2.48523 c 0.23406,-0.28204 0.24002,-0.5207 0.0231,-0.92604 -0.56324,-1.05241 -2.09504,-0.37694 -1.73288,0.76414 0.2022,0.63706 1.23433,0.73479 1.70979,0.1619 z m 3.63333,-1.36344 c -0.25098,-1.54661 -0.59606,-1.77376 -1.65394,-1.08869 -1.576,1.02059 -1.04513,1.83176 1.31041,2.00231 0.42723,0.0309 0.47584,-0.0983 0.34353,-0.91362 z m -6.51636,0.13094 c 0.24536,-0.45845 0.19332,-0.66404 -0.30139,-1.19063 -0.32888,-0.35007 -0.68353,-0.63649 -0.788121,-0.63649 -0.10459,0 -0.36943,0.44648 -0.588534,0.99219 -0.421391,1.04952 -0.379129,1.09764 1.192365,1.35776 0.10402,0.0172 0.32258,-0.21806 0.48568,-0.52283 z m 2.86828,-1.89327 c 0.64793,-1.73198 0.6453,-1.74557 -0.37462,-1.93691 -0.55837,-0.104751 -1.07325,-0.0657 -1.23242,0.09346 -0.38506,0.38506 0.21827,2.10829 0.791,2.25928 0.24637,0.065 0.48066,0.13191 0.52064,0.14879 0.04,0.0169 0.17291,-0.2372 0.2954,-0.56462 z m 7.02545,7.0492 c 0.85656,-2.11224 0.99864,-2.90681 0.88578,-4.95362 -0.142,-2.57527 -0.87763,-4.223823 -2.63465,-5.904326 -1.75878,-1.682182 -3.1685,-2.282111 -5.68751,-2.420414 -2.87291,-0.157731 -4.688861,0.406035 -6.472039,2.009264 -2.312987,2.079575 -3.44751,5.277116 -2.920037,8.229856 0.145431,0.8141 0.352526,1.70497 0.460208,1.9797 0.191432,0.48841 -0.395353,0.49518 -26.371005,0.30424 -14.611737,-0.10741 -26.606959,-0.23345 -26.656052,-0.2801 -0.04909,-0.0466 0.05194,-0.76497 0.224517,-1.59627 0.808382,-3.89396 -1.135327,-8.046937 -4.594397,-9.816486 -3.631581,-1.857801 -8.267999,-1.060556 -10.98704,1.889255 -1.591096,1.726136 -2.21842,3.276211 -2.357353,5.824851 l -0.115385,2.11666 -4.798875,0.10537 c -2.639382,0.058 -5.275125,0.11748 -5.857208,0.13229 -0.9721,0.0247 -1.078741,-0.0424 -1.308785,-0.82337 -0.184261,-0.62558 -0.4477,-0.89362 -0.996787,-1.01422 -1.1386465,-0.25009 -1.4902855,-1.24717 -1.6876245,-4.785299 l -0.175122,-3.139768 1.1866405,-1.5875 c 1.1746,-1.571392 1.18833,-1.61425 1.353188,-4.223857 0.11304,-1.789342 0.06387,-2.920315 -0.153046,-3.520181 -0.396033,-1.095212 0.01056,-1.457429 1.358745,-1.21043 l 0.900126,0.164912 -0.637921,-1.161472 c -0.350857,-0.63881 -0.874976,-1.267104 -1.16471,-1.39621 -0.626783,-0.279296 -1.9819955,-2.287333 -1.9819955,-2.936749 0,-0.333769 0.124857,-0.403973 0.4630205,-0.260348 2.232579,0.948229 4.041995,1.236882 7.672917,1.22405 3.378282,-0.01194 3.769438,0.03337 3.761898,0.435771 -0.01867,0.996331 -1.547873,2.168889 -2.828582,2.168889 -1.009202,0 -1.110023,0.32906 -0.279133,0.911038 1.190994,0.834204 3.620889,0.392141 9.2555,-1.683824 1.994207,-0.734727 5.44702,-1.861368 7.672917,-2.503647 3.749286,-1.081848 4.084164,-1.230238 4.550947,-2.016603 l 0.50386,-0.848826 1.745099,0.198371 c 0.959805,0.109104 3.531036,0.15157 5.713849,0.09437 7.072376,-0.185335 15.28988,-0.06479 17.653024,0.258969 5.63226,0.771626 8.837235,2.0242 16.435081,6.423191 l 5.599396,3.24193 4.894792,0.198175 c 7.746542,0.313634 11.022662,0.674018 12.570952,1.38285 0.7383,0.338004 1.81351,0.702462 2.38935,0.809907 4.6266,0.863255 11.9749,4.307846 12.5789,5.896489 0.13313,0.350155 0.24205,1.20039 0.24205,1.889418 0,0.689026 0.13443,1.387214 0.29875,1.551524 0.20326,0.20326 0.24344,1.0024 0.12572,2.50031 -0.33414,4.25157 -0.45797,4.97969 -0.84688,4.97969 -0.20424,0 -0.37134,0.23011 -0.37134,0.51134 0,0.6903 -0.31841,0.75349 -4.87142,0.96676 -3.80324,0.17815 -3.93807,0.16677 -3.74233,-0.31592 z m 7.54611,-2.20312 c 0.59237,-1.10685 0.0448,-3.57262 -0.69218,-3.11712 -0.18534,0.11455 -0.27459,2.98181 -0.1109,3.56275 0.0722,0.25633 0.57743,-0.024 0.80308,-0.44563 z m 0.75141,-8.682497 c -0.0738,-1.150913 -0.14193,-1.263821 -0.80825,-1.34049 -0.69619,-0.08011 -0.7276,-0.03345 -0.7276,1.080381 0,1.338543 0.11576,1.51688 0.98463,1.51688 0.58873,0 0.62636,-0.08579 0.55122,-1.256771 z m -2.3296,-0.567004 c 0,-0.869085 -0.12245,-1.341596 -0.37253,-1.437564 -0.28337,-0.108738 -0.39419,0.174763 -0.46302,1.184498 -0.0972,1.42536 -0.059,1.547675 0.48277,1.547675 0.24591,0 0.35278,-0.392158 0.35278,-1.294609 z m -1.65234,-0.489884 c 0.0171,-1.130993 -0.22775,-1.639456 -0.79506,-1.65104 -0.10914,-0.0021 -0.19844,0.582531 -0.19844,1.299467 0,1.018958 0.10108,1.329928 0.46302,1.424514 0.25466,0.06655 0.47393,0.134813 0.48727,0.151693 0.0133,0.01688 0.0328,-0.534204 0.0432,-1.224634 z m -1.78725,-0.729049 v -0.926042 h -1.6316 c -1.76998,0 -1.77582,0.04872 -0.13268,1.107496 1.48986,0.960011 1.76428,0.931788 1.76428,-0.181454 z M 16.946248,42.861411 c 1.066432,-0.624972 1.751658,-1.570071 1.396122,-1.925607 -0.358949,-0.358948 -2.144861,-0.536213 -3.142943,-0.311958 -0.613035,0.137739 -1.565796,0.174208 -2.117247,0.08104 -0.599396,-0.101268 -1.002638,-0.06404 -1.002638,0.09256 0,0.387859 1.341936,0.785415 2.250384,0.666689 0.435778,-0.05695 0.970918,0.0198 1.189199,0.170564 0.607373,0.419499 -0.636307,1.257242 -2.182062,1.469838 -1.893414,0.26041 -1.267346,0.746939 0.752529,0.584803 1.145056,-0.09191 2.046586,-0.3532 2.856656,-0.827932 z m 45.107298,0.65654 c 0.70942,-0.449339 0.02842,-0.85113 -1.144474,-0.675243 -0.866394,0.129924 -1.382799,0.04035 -2.214959,-0.384181 -1.268958,-0.647375 -1.635403,-0.689753 -1.635403,-0.189128 0,0.661209 0.851093,1.088495 2.487478,1.248822 0.88746,0.08695 1.732626,0.174424 1.878147,0.194387 0.145521,0.01998 0.428665,-0.06763 0.629211,-0.194657 z m 23.580165,-3.077949 c 0,-0.367691 -6.062276,-4.025743 -9.382326,-5.661411 C 71.827887,32.599295 69.390768,31.7445 66.035332,31.195415 63.060146,30.708553 56.092457,30.374593 54.35279,30.635472 l -1.237459,0.185569 1.339241,3.888294 c 0.736582,2.138562 1.374244,3.92643 1.417024,3.973039 0.08945,0.09745 19.084783,1.361664 20.53916,1.366957 0.831948,0.003 0.988298,-0.09584 1.145093,-0.724097 0.263933,-1.05754 0.907844,-1.653646 1.786263,-1.653646 1.088538,0 1.694929,0.39438 2.01408,1.309899 0.329523,0.945269 1.532816,1.547836 3.15304,1.578935 0.618463,0.01187 1.124479,-0.04232 1.124479,-0.12042 z m -32.387065,-2.83456 c -1.334582,-4.322706 -2.08761,-6.692597 -2.14962,-6.765181 -0.138354,-0.161944 -6.358382,0.77417 -8.5904,1.292854 -2.612321,0.60706 -6.670736,1.918873 -8.665104,2.800846 -1.234736,0.54604 -1.389062,0.70332 -1.389062,1.415655 0,1.428174 0.669774,1.551689 10.583333,1.951705 4.874948,0.196706 9.244801,0.373611 9.710783,0.393124 l 0.847241,0.03548 z"
       id="path291"
       sodipodi:nodetypes="sssssssscssssccssssssssssssssccsssssssscssssssssssscsssssssscsscsccssssssssssssssscssscssssscsssssssssscsssssssssscsssscccssscsssscssssssssssscsssscssssssssssssssscssscsscssscsscssscssssssssssssssssssscssssscsscsssssssssssscs" /></g></svg>
