<?xml version="1.0" encoding="UTF-8" standalone="no"?>
<!-- Created with Inkscape (http://www.inkscape.org/) -->

<svg
   width="107.96673mm"
   height="56.958916mm"
   viewBox="0 0 107.96673 56.958916"
   version="1.1"
   id="svg5"
   xml:space="preserve"
   inkscape:version="1.2.2 (b0a8486541, 2022-12-01)"
   sodipodi:docname="cars.svg"
   xmlns:inkscape="http://www.inkscape.org/namespaces/inkscape"
   xmlns:sodipodi="http://sodipodi.sourceforge.net/DTD/sodipodi-0.dtd"
   xmlns="http://www.w3.org/2000/svg"
   xmlns:svg="http://www.w3.org/2000/svg"><sodipodi:namedview
     id="namedview7"
     pagecolor="#505050"
     bordercolor="#ffffff"
     borderopacity="1"
     inkscape:showpageshadow="0"
     inkscape:pageopacity="0"
     inkscape:pagecheckerboard="1"
     inkscape:deskcolor="#505050"
     inkscape:document-units="mm"
     showgrid="false"
     inkscape:zoom="0.72426347"
     inkscape:cx="351.39146"
     inkscape:cy="294.78223"
     inkscape:window-width="1443"
     inkscape:window-height="1281"
     inkscape:window-x="26"
     inkscape:window-y="23"
     inkscape:window-maximized="0"
     inkscape:current-layer="layer1" /><defs
     id="defs2" /><g
     inkscape:label="Layer 1"
     inkscape:groupmode="layer"
     id="layer1"
     transform="translate(-10.905181,-66.643469)"><path
       style="fill:currentColor;stroke-width:0.264583"
       d="m 31.669737,123.27271 c -2.441561,-0.462 -5.754095,-2.07681 -7.601838,-3.70579 -1.643398,-1.44882 -3.492664,-4.17406 -4.313518,-6.35679 -0.731188,-1.94429 -1.002632,-5.93067 -0.551732,-8.10264 0.904831,-4.35855 4.477455,-8.706383 8.770322,-10.673363 l 2.267384,-1.03891 -0.9179,-2.39567 c -0.504847,-1.31762 -1.00197,-2.49159 -1.104723,-2.60884 -0.102754,-0.11724 -0.820108,0.56737 -1.59412,1.52136 l -1.407298,1.73452 h -5.629895 c -3.368223,0 -5.874048,-0.11156 -6.237657,-0.27771 -0.663633,-0.30323 -2.63999,-3.13497 -2.427714,-3.47845 0.07227,-0.11692 0.362489,-0.21259 0.644942,-0.21259 0.478881,0 0.513552,-0.20755 0.513552,-3.07424 0,-3.046 0.0085,-3.08824 0.924986,-4.59694 0.508743,-0.83748 1.10316,-1.67056 1.320928,-1.85129 0.28715,-0.23831 3.554137,-0.42183 11.890126,-0.66791 l 11.494188,-0.33931 7.951365,-4.03829 7.951367,-4.03829 0.342894,-1.21405 c 0.28852,-1.02153 0.446387,-1.21405 0.9955,-1.21405 0.608889,0 0.657921,0.10191 0.731954,1.52135 l 0.07935,1.52135 h 9.661482 c 6.828108,0 9.830965,0.0901 10.2394,0.3073 0.317854,0.16901 3.285905,2.01716 6.595663,4.10701 3.30976,2.08984 6.323917,3.91612 6.698125,4.05839 0.374208,0.14228 3.857475,0.37628 7.74059,0.52001 9.25883,0.34269 16.99136,1.19405 18.23886,2.0081 0.32742,0.21367 0.59531,0.62386 0.59531,0.91154 0,0.28856 0.17793,0.52307 0.39687,0.52307 0.28274,0 0.39688,0.28744 0.39688,0.99946 0,1.14151 -0.66995,2.27966 -1.21808,2.06933 -0.25187,-0.0967 -0.36942,0.057 -0.36942,0.48277 0,0.53663 0.17689,0.65666 1.25677,0.85279 1.11631,0.20275 1.26634,0.31164 1.34239,0.97434 0.0652,0.56853 -0.0424,0.77957 -0.45241,0.88678 -0.38018,0.0994 -0.65974,0.55939 -0.95291,1.56782 l -0.41487,1.42713 h -2.50615 -2.50615 v -1.68672 c 0,-1.88147 -0.2297,-3.34037 -0.52593,-3.34037 -0.10736,0 -0.7591,1.45852 -1.4483,3.24115 -0.68921,1.78263 -1.30796,3.37528 -1.37502,3.53923 -0.067,0.16395 0.19761,0.37828 0.58812,0.47629 0.3905,0.098 1.45361,0.54077 2.36246,0.9839 4.76413,2.3229 7.90975,6.644363 8.6508,11.884493 0.37049,2.61982 -0.16369,5.73985 -1.43912,8.4057 -1.21214,2.53353 -4.42647,5.72068 -7.0776,7.01775 -8.82839,4.3193 -19.318889,0.0834 -22.512611,-9.09017 -0.491236,-1.41102 -0.597948,-2.27528 -0.594355,-4.81365 l 0.0044,-3.09386 -0.817978,0.14875 c -0.449887,0.0818 -1.163693,0.31318 -1.586233,0.51417 -1.013211,0.48194 -1.209376,0.464 -1.886961,-0.17256 -0.509058,-0.47823 -0.610044,-0.49293 -0.909343,-0.13229 -0.437709,0.52741 -1.035736,0.51477 -1.642902,-0.0347 -0.456107,-0.41277 -0.524856,-0.40448 -1.096219,0.13229 -0.478702,0.44972 -0.935315,0.57268 -2.126586,0.57268 -1.326927,0 -1.595334,0.0912 -2.142278,0.72761 l -0.625287,0.7276 -4.850106,0.0836 c -5.531808,0.0953 -6.267686,0.008 -7.311531,-0.87066 -1.131631,-0.9522 -1.943798,-1.06029 -3.189999,-0.42452 -1.265,0.64535 -2.229824,0.70414 -2.678748,0.16322 -0.278156,-0.33516 -0.423828,-0.31101 -1.088562,0.18045 l -0.767434,0.56739 -0.620297,-0.58274 -0.6203,-0.58275 -1.233123,0.60073 -1.233122,0.60074 -0.0047,1.4552 c -0.03031,9.30617 -9.377103,16.52046 -19.03589,14.69279 z m 6.929729,-6.8414 c 1.727994,-0.84543 3.716568,-2.87707 4.520989,-4.61891 0.82628,-1.78917 0.82628,-5.73411 0,-7.52328 -0.808734,-1.75118 -2.794546,-3.77354 -4.549138,-4.632883 -1.2876,-0.63062 -1.810247,-0.72939 -3.869899,-0.73135 -2.022901,-0.002 -2.605019,0.10267 -3.868211,0.69496 -2.091637,0.980753 -3.525999,2.380023 -4.529749,4.418923 -0.769011,1.56209 -0.862457,1.99617 -0.862457,4.00642 0,1.91623 0.111329,2.49274 0.741929,3.84203 1.148567,2.45758 2.916208,4.06704 5.496708,5.00484 1.81918,0.66112 5.069097,0.44473 6.919828,-0.46075 z m -6.668984,-1.1671 c -1.700745,-0.60027 -3.771202,-2.75634 -4.365705,-4.54622 -0.919713,-2.76899 5.29e-4,-6.38724 2.066557,-8.12572 1.65679,-1.3941 2.818326,-1.80839 5.070084,-1.80839 2.251758,0 3.413294,0.41429 5.070083,1.80839 2.066066,1.73848 2.986271,5.35673 2.066558,8.12572 -0.619742,1.86587 -2.656679,3.94293 -4.474041,4.56217 -1.601626,0.54572 -3.86093,0.5391 -5.433536,-0.016 z m 3.392281,-1.09765 c 0.19622,-0.12434 0.314306,-0.44994 0.262416,-0.72355 -0.124867,-0.6584 -1.738122,-0.85983 -1.973514,-0.24641 -0.328562,0.85623 0.842801,1.52023 1.711098,0.96996 z m 3.49709,-1.36261 c 0.590085,-0.3158 0.689505,-1.45338 0.145273,-1.66222 -0.505304,-0.1939 -1.485583,0.5407 -1.485583,1.11327 0,0.83676 0.454618,1.02296 1.34031,0.54895 z m -7.02166,-0.26691 c 0.223377,-0.36143 -0.577499,-1.57587 -1.039228,-1.57587 -0.648359,0 -1.021485,0.69934 -0.696807,1.30601 0.308824,0.57704 1.437727,0.75253 1.736035,0.26986 z m 4.355581,-1.44014 c 0.190868,-0.22998 0.255455,-0.67661 0.155461,-1.07502 -0.138954,-0.55364 -0.305911,-0.66603 -0.889442,-0.59874 -0.613968,0.0708 -0.710258,0.195 -0.662516,0.85461 0.08004,1.1059 0.805402,1.53138 1.396497,0.81915 z m -2.597669,-1.10278 c 0.617279,-0.55863 0.615691,-1.06044 -0.0044,-1.3923 -0.891979,-0.47738 -2.150163,0.95566 -1.452017,1.6538 0.307684,0.30768 0.956138,0.19126 1.456423,-0.2615 z m 7.360169,-1.01388 c 0.190971,-0.23011 0.255458,-0.6766 0.155337,-1.07551 -0.224618,-0.89496 -1.299898,-0.82043 -1.430179,0.0991 -0.177951,1.25602 0.568381,1.82762 1.274842,0.97639 z m -10.897833,-0.68755 c 0.103481,-0.89021 -0.572154,-1.50517 -1.137857,-1.03568 -0.411281,0.34133 -0.537522,1.35865 -0.209325,1.68685 0.427678,0.42768 1.269048,0.021 1.347182,-0.65117 z m 7.962437,0.18848 c 0.507982,-0.61208 0.05888,-1.22416 -0.89821,-1.22416 -0.558856,0 -0.928426,0.15375 -1.03459,0.43041 -0.221041,0.57602 0.298511,1.15709 1.03459,1.15709 0.328165,0 0.732359,-0.1635 0.89821,-0.36334 z m -4.105241,-1.28663 c 0.229026,-0.36368 0.170643,-0.57797 -0.280336,-1.02895 -0.995246,-0.99525 -2.200053,0.0694 -1.25735,1.11107 0.550896,0.60873 1.121825,0.57824 1.537686,-0.0821 z m 2.433149,-1.11312 c 0.202607,-0.80725 -0.03052,-1.20566 -0.705467,-1.20566 -0.544848,0 -1.061289,0.93665 -0.838827,1.52135 0.06921,0.1819 0.408482,0.33073 0.753943,0.33073 0.445426,0 0.675296,-0.18801 0.790351,-0.64642 z m 3.287424,-1.21507 c 0,-0.63422 -0.745144,-1.36143 -1.288886,-1.25788 -0.667332,0.12709 -0.679225,1.15601 -0.01871,1.61865 0.685382,0.48006 1.307597,0.30839 1.307597,-0.36077 z m -8.156771,0.10069 c 0.593815,-0.53739 0.627999,-1.30227 0.06781,-1.51724 -0.633753,-0.24319 -1.436042,0.3123 -1.436042,0.9943 0,1.0447 0.556615,1.25744 1.36823,0.52294 z m 3.940831,-1.42351 c 0.66511,-0.35595 0.652672,-0.955 -0.02739,-1.31896 -1.164503,-0.62322 -2.247633,0.64708 -1.114486,1.30708 0.580919,0.33835 0.532794,0.33785 1.141873,0.0119 z m 71.5524,12.88568 c 3.96036,-1.83585 6.11027,-6.31182 5.04962,-10.51295 -1.13138,-4.48128 -5.12023,-7.390743 -9.68489,-7.064143 -3.457808,0.2474 -6.216859,2.178473 -7.728797,5.409413 -0.680175,1.4535 -0.800772,2.02397 -0.791509,3.74419 0.01273,2.36574 0.474694,3.82516 1.768851,5.58815 2.555518,3.48131 7.394095,4.68614 11.386725,2.83534 z m -5.82083,-1.06009 c -1.706349,-0.56472 -2.642697,-1.14113 -3.570794,-2.19817 -3.360473,-3.82737 -2.295178,-9.61954 2.179317,-11.84927 1.751367,-0.87275 4.561537,-0.9461 6.380167,-0.16655 4.67652,2.00459 5.98489,8.10466 2.57203,11.99169 -1.72065,1.95971 -5.23392,2.99235 -7.56072,2.2223 z m 2.96899,-1.68705 c 0.23503,-0.6125 -0.57555,-1.22702 -1.3591,-1.03037 -0.78598,0.19727 -0.93457,1.05329 -0.2494,1.43673 0.55143,0.30859 1.41817,0.0896 1.6085,-0.40636 z m -3.94204,-1.47684 c 0.12589,-0.6603 -0.425938,-1.24406 -1.176016,-1.24406 -0.480026,0 -0.629063,0.14418 -0.629063,0.60855 0,0.33469 0.147437,0.75597 0.327639,0.93618 0.456909,0.45691 1.36838,0.27142 1.47744,-0.30067 z m 7.4664,0.0582 c 0.38036,-0.71071 0.14555,-1.30225 -0.51692,-1.30225 -0.61493,0 -1.36763,0.95929 -1.16567,1.48559 0.21671,0.56472 1.34822,0.44143 1.68259,-0.18334 z m -2.96495,-1.38216 c 0.62666,-0.75508 -0.45718,-2.14807 -1.27708,-1.64134 -0.29891,0.18474 -0.34969,0.93318 -0.10635,1.56732 0.19434,0.50643 0.98926,0.54897 1.38343,0.074 z m -2.47007,-1.80444 c 0,-0.82614 -1.09874,-0.86961 -1.63323,-0.0646 -0.32865,0.49498 -0.32069,0.61873 0.0646,1.00404 0.38532,0.38532 0.50906,0.39329 1.00404,0.0646 0.313,-0.20782 0.56456,-0.65521 0.56456,-1.00404 z m -3.96875,-1.02969 c 0,-0.75074 -0.109051,-0.93792 -0.58596,-1.00574 -0.442719,-0.063 -0.627811,0.0834 -0.75715,0.59875 -0.197583,0.78723 0.289409,1.53234 0.921903,1.41053 0.289164,-0.0557 0.421207,-0.37029 0.421207,-1.00354 z m 11.19202,0.24556 c 0.10349,-0.89021 -0.57215,-1.50517 -1.13785,-1.03568 -0.41128,0.34133 -0.53753,1.35865 -0.20933,1.68685 0.42768,0.42768 1.26905,0.021 1.34718,-0.65117 z m -3.17514,0.23432 c 0.81629,-0.8163 -0.0617,-1.78578 -1.27,-1.40229 -0.92839,0.29465 -0.48989,1.71979 0.52916,1.71979 0.23284,0 0.56621,-0.14288 0.74084,-0.3175 z m -3.99772,-1.43826 c 0.24057,-0.62692 -0.27314,-1.28695 -1.00166,-1.28695 -0.71996,0 -0.99161,0.73534 -0.49341,1.33563 0.42791,0.5156 1.2893,0.48755 1.49507,-0.0487 z m 2.47537,-1.05455 c 0.28795,-0.75737 -0.045,-1.42303 -0.71176,-1.42303 -0.46774,0 -1.00924,1.15446 -0.79877,1.70292 0.25912,0.67528 1.21469,0.49821 1.51053,-0.27989 z m 3.16276,-0.73993 c 0,-0.0609 0.0664,-0.28363 0.14751,-0.49505 0.1886,-0.49149 -0.55822,-1.24638 -1.23304,-1.24638 -0.72668,0 -0.92013,0.71468 -0.36076,1.33277 0.40253,0.4448 1.44629,0.73972 1.44629,0.40866 z m -7.990415,-0.47143 c 0.522225,-0.52222 0.395055,-1.53458 -0.192768,-1.53458 -0.887304,0 -1.688759,1.15236 -1.165426,1.67569 0.28081,0.28081 1.012269,0.20482 1.358194,-0.14111 z m 4.153955,-2.06375 c 0,-0.5145 -0.15198,-0.67913 -0.6841,-0.74098 -0.90338,-0.10501 -1.5056,0.57165 -1.02459,1.15123 0.18947,0.2283 0.6439,0.37498 1.02459,0.33073 0.53212,-0.0618 0.6841,-0.22648 0.6841,-0.74098 z m -48.286457,2.11667 c 0.195366,0 0.572942,0.19704 0.839063,0.43788 0.451088,0.40823 0.519964,0.4052 1.017122,-0.0447 0.328446,-0.29724 1.090615,-0.52882 1.984375,-0.60293 0.849503,-0.0704 1.441212,-0.24387 1.427237,-0.41831 -0.01312,-0.16388 -1.265362,-1.41107 -2.782742,-2.77154 l -2.758869,-2.473573 -2.839657,1.648163 c -1.561809,0.90649 -2.878801,1.68171 -2.926649,1.72272 -0.225449,0.19323 0.887103,3.03147 1.188294,3.03147 0.188759,0 0.831525,-0.19539 1.428364,-0.43419 1.048496,-0.41953 1.104088,-0.41527 1.645245,0.12588 0.497589,0.49759 0.608225,0.51652 0.991545,0.16962 0.237305,-0.21476 0.591307,-0.39047 0.786672,-0.39047 z m 22.632028,-0.59026 c 1.154425,-0.56087 1.252855,-0.5685 1.976424,-0.15322 0.654741,0.37577 0.805236,0.38433 1.073502,0.0611 0.41574,-0.50094 1.285299,-0.47629 1.870171,0.053 0.474239,0.42918 0.581467,0.41128 1.816626,-0.30315 0.363802,-0.21043 1.090753,-0.38435 1.615448,-0.3865 0.902409,-0.004 0.997104,-0.0909 1.751492,-1.61292 0.50991,-1.02878 0.69066,-1.64861 0.501221,-1.71881 -0.162957,-0.0604 -1.535771,-0.525513 -3.050696,-1.033603 l -2.754413,-0.9238 -2.841781,2.642623 c -2.506893,2.33119 -2.954002,2.64261 -3.794028,2.64261 -0.839337,0 -0.952243,0.0784 -0.952243,0.66146 0,0.55724 0.123944,0.66146 0.786672,0.66146 0.432671,0 1.333392,-0.26562 2.001605,-0.59026 z M 50.802227,98.605727 c 1.185492,-0.97466 2.207996,-1.81105 2.272231,-1.85863 0.06423,-0.0476 -0.527013,-0.73841 -1.313878,-1.53517 -1.13419,-1.14846 -1.604143,-1.44866 -2.267784,-1.44866 -0.791329,0 -0.903973,-0.13386 -2.05953,-2.4474 -1.137954,-2.2783 -2.878092,-4.73497 -3.139162,-4.43177 -0.154138,0.17901 -2.848039,6.96868 -2.846795,7.17502 5.29e-4,0.09 0.785196,0.62219 1.743678,1.18273 1.617922,0.9462 5.136473,4.28658 5.136473,4.876383 0,0.46208 0.284758,0.28804 2.474767,-1.512503 z m 40.672344,-1.02872 c 0.92942,-0.99134 3.84276,-2.84394 5.582555,-3.54995 l 1.501539,-0.60932 -0.538644,-1.34859 c -0.296254,-0.74173 -0.852217,-2.21179 -1.235474,-3.26682 -0.383257,-1.05503 -0.762469,-1.91823 -0.842693,-1.91823 -0.08022,0 -1.563733,1.54781 -3.296685,3.43958 -2.346589,2.56165 -3.311379,3.43959 -3.779842,3.43959 -0.7125,0 -3.04109,1.78278 -2.812241,2.15307 0.17698,0.28636 4.083391,2.31247 4.495443,2.33162 0.156533,0.007 0.573252,-0.29465 0.926042,-0.67095 z m -52.407528,-4.46595 c 0,-0.0677 0.357188,-1.79825 0.79375,-3.84571 0.436563,-2.04746 0.79375,-3.77803 0.79375,-3.8457 0,-0.23639 -8.337743,-0.11281 -8.720418,0.12924 -0.334129,0.21135 -0.302244,0.68226 0.237093,3.50168 0.342723,1.79162 0.676294,3.40184 0.741265,3.57828 0.07647,0.20765 0.925941,0.35175 2.40874,0.40861 1.259837,0.0483 2.618034,0.11231 3.018216,0.14223 0.400182,0.0299 0.727604,-0.001 0.727604,-0.0686 z m 66.813567,-4.01293 0.81487,-3.7391 -3.63824,-0.18745 c -2.00103,-0.1031 -3.74841,-0.11936 -3.883069,-0.0361 -0.143904,0.0889 -0.03997,1.16227 0.252119,2.60363 0.273325,1.34877 0.62494,3.08189 0.78136,3.85138 l 0.2844,1.39905 2.28685,-0.0761 2.28685,-0.0761 z m -26.067733,0.82868 c 0,-0.88194 -0.0441,-0.92604 -0.926041,-0.92604 -0.881944,0 -0.926042,0.0441 -0.926042,0.92604 0,0.88194 0.0441,0.92604 0.926042,0.92604 0.881943,0 0.926041,-0.0441 0.926041,-0.92604 z m 3.704167,0 c 0,-0.85255 -0.063,-0.92604 -0.79375,-0.92604 -0.730753,0 -0.79375,0.0735 -0.79375,0.92604 0,0.85255 0.063,0.92604 0.79375,0.92604 0.730753,0 0.79375,-0.0735 0.79375,-0.92604 z m -1.852083,-1.98438 c 0,-0.73075 -0.0735,-0.79375 -0.926042,-0.79375 -0.852546,0 -0.926042,0.063 -0.926042,0.79375 0,0.73076 0.0735,0.79375 0.926042,0.79375 0.852546,0 0.926042,-0.063 0.926042,-0.79375 z m 3.96875,0 c 0,-0.73075 -0.0735,-0.79375 -0.926042,-0.79375 -0.852546,0 -0.926041,0.063 -0.926041,0.79375 0,0.73076 0.07349,0.79375 0.926041,0.79375 0.852546,0 0.926042,-0.063 0.926042,-0.79375 z m -69.67855,-2.05053 c -0.08842,-0.5457 -0.371527,-1.64703 -0.629128,-2.44739 -0.36432,-1.13194 -0.600612,-1.47399 -1.063679,-1.53976 -0.479086,-0.068 -0.595312,0.0427 -0.595312,0.56701 0,0.35835 0.178594,0.72008 0.396875,0.80385 0.272539,0.10458 0.396875,0.5305 0.396875,1.35952 0,0.82902 -0.124336,1.25495 -0.396875,1.35953 -0.218281,0.0838 -0.396875,0.31815 -0.396875,0.52086 0,0.26194 0.354234,0.36857 1.224441,0.36857 h 1.224441 z m 63.857716,0.0661 c 0,-0.88194 -0.0441,-0.92604 -0.926041,-0.92604 -0.881944,0 -0.926042,0.0441 -0.926042,0.92604 0,0.88195 0.0441,0.92605 0.926042,0.92605 0.881943,0 0.926041,-0.0441 0.926041,-0.92605 z m 3.704167,0 c 0,-0.85254 -0.063,-0.92604 -0.79375,-0.92604 -0.730753,0 -0.79375,0.0735 -0.79375,0.92604 0,0.85255 0.063,0.92605 0.79375,0.92605 0.730753,0 0.79375,-0.0735 0.79375,-0.92605 z m -20.055888,-2.72469 c 0.497015,-0.49701 0.0373,-0.69248 -1.884003,-0.80104 -2.44734,-0.13828 -3.822904,0.61765 -2.004901,1.10179 0.884182,0.23546 3.559598,0.0286 3.888904,-0.30075 z m -5.873279,-8.12318 v -3.57187 h -1.585606 -1.585608 l -1.721684,3.4358 c -0.946927,1.8897 -1.721686,3.49704 -1.721686,3.57188 0,0.0748 1.488282,0.13607 3.307292,0.13607 h 3.307292 z m 23.286945,2.84427 c 0.0021,-0.40018 0.06888,-0.97053 0.148646,-1.26745 0.121809,-0.45339 -0.356076,-0.86377 -2.984093,-2.56257 -1.721019,-1.11251 -3.462536,-2.1495 -3.870036,-2.30443 -0.453443,-0.1724 -3.351949,-0.28169 -7.470561,-0.28169 h -6.729651 v 3.57187 3.57188 h 10.451042 10.451042 l 0.0036,-0.72761 z m -33.139621,-1.30734 c 0.905645,-0.42975 1.937932,-1.51429 3.464062,-3.63939 l 0.887426,-1.23572 -3.930134,1.97738 c -2.161574,1.08756 -4.584981,2.35326 -5.385345,2.81266 l -1.455209,0.83528 2.772442,-0.16766 c 1.635903,-0.0989 3.13086,-0.33774 3.646758,-0.58255 z"
       id="path291"
       sodipodi:nodetypes="csssscssscsssssssscccssscssssssssscsscsscccssscscssssscsssssssscccsssccccccccsssscsssssscssssssccsssssssssssssssssssssscssccssssssssssssssssssssssssssssssssssssssssssssssssssssssssssssssssscsssccscssssssscsscsssssssssscsssssssssscsssscsscssssssssssssscssscsssssssssssssssssscsssssscsssssssssssccscssccccsssssssssssssssssssssscssscsscssssssssssscsscccccsssccsssssccccccssscssccs" /></g></svg>
